<?xml version="1.0" standalone="no"?><!DOCTYPE svg PUBLIC "-//W3C//DTD SVG 1.1//EN" "http://www.w3.org/Graphics/SVG/1.1/DTD/svg11.dtd"><svg t="1592184954504" class="icon" viewBox="0 0 1024 1024" version="1.1" xmlns="http://www.w3.org/2000/svg" p-id="2795" xmlns:xlink="http://www.w3.org/1999/xlink" width="16" height="16"><defs><style type="text/css"></style></defs><path d="M512 303.722667c-153.493333 0-278.378667 124.906667-278.378667 278.4 0 153.450667 124.885333 278.336 278.378667 278.336 153.493333 0 278.4-124.906667 278.4-278.378667C790.4 428.608 665.493333 303.722667 512 303.722667zM512 817.728c-129.92 0-235.626667-105.749333-235.626667-235.648 0-129.898667 105.706667-235.605333 235.626667-235.605333 129.941333 0 235.648 105.685333 235.648 235.605333C747.648 712 641.941333 817.728 512 817.728z" p-id="2796"></path><path d="M839.082667 186.922667l-88.256 0-17.429333-58.368c-14.72-48.896-58.922667-81.792-109.973333-81.792L400.597333 46.762667c-50.304 0-95.552 33.642667-109.994667 81.813333l-17.514667 58.346667L184.896 186.922667C82.965333 186.922667 0 269.866667 0 371.818667l0 420.586667c0 101.888 82.965333 184.832 184.896 184.832l654.250667 0c101.888 0 184.853333-82.901333 184.832-184.832L1023.978667 371.818667C1023.978667 269.866667 941.034667 186.922667 839.082667 186.922667zM981.248 792.426667c0 78.378667-63.765333 142.08-142.144 142.08L184.896 934.506667c-78.378667 0-142.165333-63.701333-142.165333-142.08L42.730667 371.818667c0-78.378667 63.786667-142.144 142.165333-142.144l120-0.021333 26.645333-88.832c9.066667-30.250667 37.461333-51.349333 69.056-51.349333l222.869333 0c32.042667 0 59.754667 20.650667 69.013333 51.349333l26.581333 88.853333 120.042667 0c78.378667 0 142.144 63.765333 142.144 142.144L981.248 792.426667z" p-id="2797"></path></svg>